# xmcd
#
# Track frame offsets:
#	150
#	45937
#	95507
#	122655
#	167385
#	189792
#	219775
#	246777
#	272537
#	302097
#
# Disc length: 4326 seconds
#
# Revision: 1
# Processed by: cddbd v1.5.1PL0 Copyright (c) Steve Scherf et al.
# Submitted via: CDex 1.50Beta5
#
DISCID=7110e40a
DTITLE=ドヴォルザーク - 047 ドヴォルザーク チェコ国民学派の泰斗
DYEAR=1900
DGENRE=Classical
TTITLE0=第8番 ト長調 op.88 第1楽章
TTITLE1=第8番 ト長調 op.88 第2楽章
TTITLE2=第8番 ト長調 op.88 第3楽章
TTITLE3=第8番 ト長調 op.88 第4楽章
TTITLE4=弦楽セレナード ホ長調 op.22 第1楽章
TTITLE5=弦楽セレナード ホ長調 op.22 第2楽章
TTITLE6=弦楽セレナード ホ長調 op.22 第3楽章
TTITLE7=弦楽セレナード ホ長調 op.22 第4楽章
TTITLE8=弦楽セレナード ホ長調 op.22 第5楽章
TTITLE9=≪スラヴ舞曲≫第1集作品46より:第2番ホ短調
EXTD=
EXTT0=
EXTT1=
EXTT2=
EXTT3=
EXTT4=
EXTT5=
EXTT6=
EXTT7=
EXTT8=
EXTT9=
PLAYORDER=
